<svg xmlns="http://www.w3.org/2000/svg" width="228" height="154" viewBox="0 0 228 154" fill="none">
  <path d="M227.168 0C227.168 13.6542 104.281 78.6292 0.226562 20.2458" stroke="black" stroke-width="0.941667" stroke-miterlimit="10"/>
  <path d="M138.906 44.9137L144.683 41.5024L144.16 20.2461L138.126 23.1346V28.9294L136.159 23.7726L131.117 26.475L138.906 44.9137Z" fill="#5BEF76"/>
  <path d="M138.125 23.1328L138.905 44.9119" stroke="black" stroke-width="0.941667" stroke-miterlimit="10"/>
  <path d="M131.984 25.9336L138.125 39.499" stroke="black" stroke-width="0.941667" stroke-miterlimit="10"/>
  <path d="M142.25 40.476C142.832 40.476 143.304 40.0039 143.304 39.4216C143.304 38.8393 142.832 38.3672 142.25 38.3672C141.667 38.3672 141.195 38.8393 141.195 39.4216C141.195 40.0039 141.667 40.476 142.25 40.476Z" fill="black"/>
  <path d="M153.336 62.8206L173.733 73.7721L179.395 57.9118L182.416 74.5253C182.416 74.5253 180.91 112.289 186.572 117.578C192.234 122.868 208.094 84.7237 208.094 84.7237C208.094 84.7237 214.89 71.1317 213.756 64.3268C212.621 57.522 202.804 52.9943 202.804 52.9943L194.422 20.6535C193.306 16.365 188.468 14.2562 184.569 16.365L171.615 23.3825C167.398 25.6685 164.217 29.4874 162.728 34.0417L153.336 62.8117V62.8206Z" fill="#F7576C"/>
  <path d="M177.152 32.5875L195.316 24.1257L194.421 20.6613C193.305 16.3728 188.467 14.264 184.568 16.3728L175.734 21.1575C176.151 24.6396 177.152 32.5875 177.152 32.5875Z" fill="#FF9BA4"/>
  <path d="M176.779 36.2724L164.56 30.1055C163.807 31.3371 163.178 32.6573 162.717 34.0484L160.156 41.9076C163.878 44.2557 178.994 52.6111 178.994 52.6111L176.779 36.2724Z" fill="#FF9BA4"/>
  <path d="M197.998 34.4648L178.133 46.2227L179.852 57.2806L200.638 44.6633L197.998 34.4648Z" fill="#FF9BA4"/>
  <path d="M156.88 51.6289L178.252 61.9514L173.724 73.7713L153.336 62.8197L156.88 51.6289Z" fill="#FF9BA4"/>
  <path d="M181.11 67.4014L182.404 74.534C182.404 74.534 182.369 75.4024 182.333 76.8732L212.849 61.7129C210.926 57.9472 206.682 55.1473 204.369 53.8359L181.102 67.4014H181.11Z" fill="#FF9BA4"/>
  <path d="M163.627 55.5195L160.172 66.2141" stroke="#00254A" stroke-width="0.941667" stroke-linecap="round" stroke-linejoin="round"/>
  <path d="M213.756 64.3336C213.206 61.0109 210.575 58.2376 208.032 56.2617C205.63 58.2199 202.024 62.3843 203.805 68.8259C204.913 72.8308 208.484 76.5345 210.77 78.5813C212.524 74.089 214.385 68.1348 213.747 64.3248L213.756 64.3336Z" fill="#FF9BA4"/>
  <path d="M152.773 62.4752L173.631 73.8344L179.913 56.707" stroke="#00254A" stroke-width="0.941667" stroke-linecap="round" stroke-linejoin="round"/>
  <path d="M168.302 57.0586L164.82 68.6304" stroke="#00254A" stroke-width="0.941667" stroke-linecap="round" stroke-linejoin="round"/>
  <path d="M206.445 88.5247L182.247 81.2148C182.211 83.811 182.202 86.9564 182.264 90.3234L203.024 95.9676C204.389 93.1145 205.567 90.5095 206.445 88.5247Z" fill="#FF9BA4"/>
  <path d="M182.477 96.9219C182.902 106.119 184.001 115.183 186.561 117.576C189.157 120.003 193.898 113.287 198.275 105.313C193.384 102.69 186.18 98.8446 182.477 96.9219Z" fill="#FF9BA4"/>
  <path d="M175.109 20.1641L182.366 75.7637" stroke="#00254A" stroke-width="0.941667" stroke-linecap="round" stroke-linejoin="round"/>
  <path d="M205.854 52.9062C205.393 53.0569 201.051 69.3247 212.65 78.8498" stroke="#00254A" stroke-width="0.941667" stroke-linecap="round" stroke-linejoin="round"/>
  <path d="M159.393 53.6562L155.742 63.9876" stroke="#00254A" stroke-width="0.941667" stroke-linecap="round" stroke-linejoin="round"/>
  <path d="M30.0871 21.9531L54.5686 37.7868L45.2651 102.38C45.2651 102.38 49.9966 138.947 43.7942 142.943C37.5919 146.93 26.0289 114.598 26.0289 114.598C26.0289 114.598 14.4217 104.905 15.9989 98.0205C17.576 91.1359 26.277 89.8334 26.277 89.8334L30.0871 21.9531Z" fill="#A0CFFF"/>
  <path d="M54.5679 37.7868L30.0864 21.9531L29.3333 35.4565L52.8047 50.0409L54.5679 37.7868ZM45.6188 105.454L24.9385 106.837L24.3359 113.066C25.346 114.023 26.0283 114.59 26.0283 114.59C26.0283 114.59 26.5333 116.007 27.3839 118.187L46.5403 115.671C46.2568 111.55 45.8847 107.882 45.6188 105.446V105.454ZM46.9834 126.631L31.7788 128.571C35.5799 136.75 40.4532 145.079 43.7847 142.934C46.3011 141.313 47.0188 134.348 46.9834 126.631ZM45.9112 97.861L47.1251 89.4435L27.1359 74.5579L26.2764 89.8334C26.2764 89.8334 25.9751 89.8777 25.4701 89.9928L45.9112 97.861ZM51.068 62.0734L28.6421 47.622L27.9156 60.5937L48.977 76.5603L51.068 62.0734Z" fill="#236CFF"/>
  <path d="M32.9759 24.1758L32.4531 37.0944" stroke="#00254A" stroke-width="0.941667" stroke-linecap="round" stroke-linejoin="round"/>
  <path d="M37.3712 27.0938L36.875 39.7022" stroke="#00254A" stroke-width="0.941667" stroke-linecap="round" stroke-linejoin="round"/>
  <path d="M41.2274 30.1562L40.7578 42.4635" stroke="#00254A" stroke-width="0.941667" stroke-linecap="round" stroke-linejoin="round"/>
  <path d="M74.6328 49.6514L96.8283 36.8125L108.418 151.379C108.418 151.379 94.8879 156.535 86.2844 131.115C86.2844 131.115 77.5656 126.729 75.6429 120.633C74.2341 116.194 80.4542 102.947 80.4542 102.947L74.6328 49.6514Z" fill="#A0CFFF"/>
  <path d="M74.6328 49.6514L75.953 61.7282L98.3878 52.1943L96.8284 36.8125L74.6328 49.6514ZM83.4933 128.058L105.831 125.878L104.652 114.209L81.0921 117.292L83.4933 128.058ZM78.2213 82.5504L101.135 79.4226L99.77 65.9724L76.9897 71.3241L78.2125 82.5592L78.2213 82.5504ZM108.409 151.379L107.301 140.427L90.9627 141.535C99.0523 154.932 108.409 151.388 108.409 151.388V151.379ZM80.4453 102.956C80.4453 102.956 80.1175 103.647 79.639 104.764L103.651 104.329L102.251 90.5071L79.5504 94.7158L80.4453 102.947V102.956Z" fill="#236CFF"/>
  <path d="M86.875 43.1055L88.9927 55.8646" stroke="#00254A" stroke-width="0.941667" stroke-linecap="round" stroke-linejoin="round"/>
  <path d="M82.375 45.6719L84.661 58.0057" stroke="#00254A" stroke-width="0.941667" stroke-linecap="round" stroke-linejoin="round"/>
  <path d="M78.1797 48.1094L80.1024 60.0622" stroke="#00254A" stroke-width="0.941667" stroke-linecap="round" stroke-linejoin="round"/>
  <path d="M26.2785 89.8343C26.2785 89.8343 17.5864 91.1368 16.0004 98.0214C14.4143 104.906 26.0304 114.599 26.0304 114.599C26.0304 114.599 26.0747 114.723 26.1633 114.954C29.043 100.556 27.014 89.9406 26.4203 87.3711L26.2785 89.8343Z" fill="#236CFF"/>
  <path d="M43.0758 144.759C35.6596 145.211 25.1865 115.068 25.1865 115.068C18.8424 111.444 12.7818 100.165 18.8335 93.7319C21.4651 90.932 26.17 89.9219 26.17 89.9219C26.17 89.9219 29.2889 102.043 25.5941 113.429" stroke="#00254A" stroke-width="0.941667" stroke-linecap="round" stroke-linejoin="round"/>
  <path d="M75.6352 120.643C77.5668 126.739 86.2766 131.125 86.2766 131.125C86.3032 131.204 86.3387 131.284 86.3652 131.364C87.4374 113.926 80.4464 102.957 80.4464 102.957C80.4464 102.957 74.2352 116.203 75.6352 120.643Z" fill="#236CFF"/>
  <path d="M86.2603 129.431C85.8085 109.938 80.5896 104.09 80.5896 104.09C80.5896 104.09 74.1037 111.674 74.3341 119.011C74.5645 126.339 85.5958 132.311 85.5958 132.311C85.5958 132.311 90.8944 156.633 108.394 152.831" stroke="#00254A" stroke-width="0.941667" stroke-linecap="round" stroke-linejoin="round"/>
  <path d="M40.2812 33.6412L46.9532 34.3324L59.163 16.9215L52.5973 15.6544L49.1506 20.3239L50.6392 14.9988L44.9773 14.1836L40.2812 33.6412Z" fill="#5BEF76"/>
  <path d="M46.0028 14.2617L42.875 28.8195" stroke="black" stroke-width="0.941667" stroke-miterlimit="10"/>
  <path d="M52.5973 15.6523L40.2812 33.6391" stroke="black" stroke-width="0.941667" stroke-miterlimit="10"/>
  <path d="M46.2419 32.2572C46.8242 32.2572 47.2963 31.7852 47.2963 31.2028C47.2963 30.6205 46.8242 30.1484 46.2419 30.1484C45.6596 30.1484 45.1875 30.6205 45.1875 31.2028C45.1875 31.7852 45.6596 32.2572 46.2419 32.2572Z" fill="black"/>
  <path d="M87.3345 45.2381L93.1736 41.9332L93.0318 20.668L86.9446 23.4413L86.8383 29.2361L84.9687 24.0438L79.8828 26.6488L87.3345 45.2381Z" fill="#5BEF76"/>
  <path d="M86.9375 23.4414L87.3274 45.2382" stroke="black" stroke-width="0.941667" stroke-miterlimit="10"/>
  <path d="M80.7578 26.125L86.65 39.8056" stroke="black" stroke-width="0.941667" stroke-miterlimit="10"/>
  <path d="M90.7732 40.8627C91.3555 40.8627 91.8276 40.3906 91.8276 39.8083C91.8276 39.226 91.3555 38.7539 90.7732 38.7539C90.1908 38.7539 89.7188 39.226 89.7188 39.8083C89.7188 40.3906 90.1908 40.8627 90.7732 40.8627Z" fill="black"/>
</svg>
